<?xml version="1.0" encoding="UTF-8"?>
<svg width="906px" height="318px" viewBox="0 0 906 318" version="1.1" xmlns="http://www.w3.org/2000/svg" xmlns:xlink="http://www.w3.org/1999/xlink">
    <!-- Generator: Sketch 50.2 (55047) - http://www.bohemiancoding.com/sketch -->
    <title>Artboard Copy</title>
    <desc>Created with Sketch.</desc>
    <defs></defs>
    <g id="Artboard-Copy" stroke="none" stroke-width="1" fill="none" fill-rule="evenodd">
        <g id="dove" transform="translate(72.000000, 20.000000)" fill-rule="nonzero">
            <path d="M251,141.499 C251,208.048716 197.27258,262 130.999004,262 C64.7254286,262 11,208.048716 11,141.499 C11,74.949284 64.7254286,21 130.999004,21 C197.27258,21 251,74.949284 251,141.499 Z" id="Shape" fill="#603256"></path>
            <path d="M120.195581,121.755412 C118.127717,123.50135 117.44642,126.385249 118.499333,128.87716 C119.000815,130.059119 119.54825,131.463069 120.083696,133.041013 C119.39241,134.784952 118.982834,136.664885 118.906912,138.620816 C118.355481,152.828314 113.582412,173.103598 90.8179247,172.999602 C87.8110307,172.985602 85.2316953,172.733611 83,172.283627 C102.995347,162.589969 98.7597218,142.47268 93.2853762,129.499138 C90.2844761,122.38739 92.4502391,114.153681 98.5799078,109.469846 C118.251589,94.4403774 157.928606,61.1975517 146.630276,2.18963671 C146.24867,0.203707001 148.895936,-0.852255689 149.972824,0.857683511 C161.502914,19.1690365 182.862852,68.8692806 120.195581,121.755412 Z" id="Shape" fill="#73CCF9"></path>
            <path d="M106.867291,148.714047 C103.043975,148.714047 99.6147557,146.977342 97.2717496,144.230594 C98.5344239,154.768228 95.9286877,165.811895 83,172.27495 C85.1900738,172.730379 87.7213041,172.987444 90.6721191,172.999589 C111.108229,173.096748 116.768696,155.934128 118,142 C115.804045,146.007782 111.643493,148.714047 106.867291,148.714047 Z" id="Shape" fill="#5BBBF4"></path>
            <path d="M132.021584,122.7041 C126.461591,123.922905 122.05269,127.871032 120.048644,133 C119.624142,131.735241 119.110791,130.332617 118.484896,128.836085 C117.412781,126.270601 118.182809,123.409408 120.161187,121.721064 C134.225047,109.722834 143.996497,97.8884428 150.581219,86.5475676 C168.607758,62.471185 173.920947,34.9881449 174.935804,19.5852539 C175.060193,17.6711318 177.739493,17.4053927 178.231126,19.2555775 C190.729264,66.5172165 176.62789,96.4618424 159.389148,114.596053 C149.029318,118.747981 139.330921,121.101672 132.021584,122.7041 Z" id="Shape" fill="#73CCF9"></path>
            <path d="M159,114 C163.665699,109.172416 168.104484,103.502582 171.85854,96.8795179 C180.188725,85.9025124 188.264127,72.2639947 194.934246,55.4229421 C195.794136,53.2469621 199.014743,53.6690783 199.277487,55.9917088 C200.119463,63.4253155 200.646941,74.955234 198.391721,87.575124 C186.548328,100.682528 172.238723,108.780026 159,114 Z" id="Shape" fill="#73CCF9"></path>
            <path d="M151.745098,118.223493 C144.318902,120.730268 137.507276,122.369779 132.03347,123.582735 C126.468764,124.815906 122.05415,128.810573 120.050381,134 C119.625519,132.720332 119.111733,131.301175 118.485308,129.787002 C117.412283,127.191277 118.182964,124.296357 120.163019,122.588111 C134.238801,110.44845 144.018535,98.4745581 150.608838,87 C150.608838,87 155.124234,101.622177 151.745098,118.223493 Z" id="Shape" fill="#5BBBF4"></path>
            <path d="M139,158.502045 C139.06958,158.098318 140.149055,153.812453 140.377673,147.808265 C140.485025,145.01599 142.411382,142.748757 144.94805,142.066599 C162.987023,137.229836 177.008278,130.690661 187.892494,123.224704 C214.714383,109.12411 231.306102,86.443831 238.800805,72.8841901 C239.731181,71.2016653 242.307609,72.1125356 241.969652,74.0058735 C224.668221,170.729189 139,158.502045 139,158.502045 Z" id="Shape" fill="#73CCF9"></path>
            <path d="M138.317401,158.338691 C138.317401,158.338691 172.760248,163.303309 202.357305,142.009456 C214.654491,135.456884 227.85927,126.332668 241.159376,113.63706 C242.877249,111.998917 245.627831,113.779594 244.871173,116.040071 C237.272814,138.73317 209.66571,197.30883 132,173.34898 C135.310628,168.617236 137.225113,163.243083 138.317401,158.338691 Z" id="Shape" fill="#95D6FC"></path>
            <path d="M222.490906,185.81402 C166.730195,217.942793 124,181.253537 124,181.253537 C127.666578,179.016168 130.519247,176.150662 132.747521,173 L132.745526,173.001994 C157.633571,180.593493 177.396785,179.835739 193.028616,174.559378 L193.04258,174.561372 L221.569275,180.238545 C224.298262,180.780938 224.902708,184.42414 222.490906,185.81402 Z" id="Shape" fill="#73CCF9"></path>
            <path d="M123.723808,181 C123.723808,181 149.423196,203.030206 186.995552,198.067258 L200.675713,207.381036 C202.731343,208.781303 202.316611,211.915901 199.966461,212.738058 C185.314584,217.871038 144.530554,227.910955 120.982967,191.512007 C118.945368,187.901318 120.179548,183.160412 123.723808,181 Z" id="Shape" fill="#95D6FC"></path>
            <path d="M173.961463,155.832034 C173.959448,155.832034 173.957433,155.834035 173.957433,155.834035 C154.623523,160.711308 139,158.499824 139,158.499824 C139.07054,158.093551 140.164912,153.778655 140.396685,147.738602 C140.503502,144.926715 142.458458,142.645184 145.030132,141.960725 C163.318039,137.091457 177.532785,130.51104 188.567201,123 C188.567201,123 192.928566,144.424378 173.961463,155.832034 Z" id="Shape" fill="#5BBBF4"></path>
            <path d="M138.308602,159.140609 C138.308602,159.140609 162.666431,162.689963 188,151 C186.798173,156.517614 182.367674,171.029222 167.900131,179.98673 C157.323653,180.169164 145.41049,178.480636 132,174.296817 C135.306017,169.519074 137.217835,164.092678 138.308602,159.140609 Z" id="Shape" fill="#73CCF9"></path>
            <path d="M132.003906,173 L132,173.003906 L132.003906,173 Z" id="Shape" fill="#5BBBF4"></path>
            <path d="M132.666569,173 C150.236931,178.540805 165.227486,179.735561 178,178.013888 C178,178.013888 175.046566,191.775018 159.512374,198 C137.630473,193.541622 124,181.451107 124,181.451107 C127.633475,179.159628 130.46039,176.226861 132.666569,173 Z" id="Shape" fill="#5BBBF4"></path>
            <path d="M123.651403,181 C123.651403,181 139.316985,194.696733 164,198.060877 C164,198.060877 152.980656,208.523548 134.637349,206.810455 C129.706247,202.986017 125.067867,197.988831 120.963855,191.516705 C118.965874,187.904402 120.176057,183.161378 123.651403,181 Z" id="Shape" fill="#73CCF9"></path>
            <path d="M170.547804,221.041562 C139.957486,215.408728 127.169927,200.776147 122.052907,191.692477 C120.036446,188.115757 121.258302,183.420063 124.760156,181.278028 C138.448135,172.9117 140.802004,155.78141 141.113458,147.602911 C141.215279,144.901388 143.056049,142.581516 145.665469,141.882157 C205.775981,125.752948 221.218881,90.6931012 224,65.3663276 C221.622173,62.4589937 219.110581,59.6695518 216.475205,57 C198.297106,105.009971 153.719336,116.729224 131.318646,121.588767 C123.787863,123.223269 118.337428,129.751282 118.037953,137.456216 C117.48692,151.651198 112.71729,171.90862 89.9692111,171.804716 C57.1288424,171.656852 74.7599017,143.192955 51.8940292,135.304189 C34.1032502,129.167817 25.5702251,140.555374 22.3339046,146.897558 C21.7409448,148.056495 20.9423463,149.077558 20,149.938768 C21.792854,153.375616 22.8070741,157.280036 22.7871089,161.428232 C22.7711369,165.092871 21.9485804,168.563688 20.5011207,171.684826 C23.9989823,175.301509 26.4965994,179.837349 27.6685428,184.844757 C32.2924279,204.590649 40.2025466,219.403064 49.7497919,230.498889 C71.140254,250.060949 99.6162814,262 130.877421,262 C166.047701,262 197.690171,246.891855 219.687568,222.811938 C204.46029,224.080774 187.198583,224.106751 170.547804,221.041562 Z" id="Shape" fill="#B4E4FC"></path>
            <path d="M170.029435,221.040471 C139.544446,215.407487 126.800918,200.774516 121.701517,191.690604 C119.691999,188.113789 120.909647,183.41797 124.399444,181.275878 C138.040292,172.909327 140.386057,155.778581 140.696438,147.599863 C140.797909,144.898269 142.63234,142.578335 145.232776,141.878957 C150.037713,140.58411 154.552165,139.167372 158.800008,137.646726 C152.795329,136.475768 148.258991,131.168494 148.258991,124.79417 C148.258991,121.409184 149.538318,118.323931 151.637369,116 C143.830092,118.641648 136.655515,120.340136 130.935352,121.585027 C123.430499,123.219572 117.99883,129.747759 117.700387,137.452898 C117.151251,151.648258 112.398044,171.906221 89.7282918,171.802313 C57.0009997,171.654445 74.5693619,143.18979 51.7842111,135.300814 C34.0546896,129.164279 25.5490555,140.552139 22.3238785,146.894492 C21.7349504,148.05346 20.9391016,149.07455 20,149.935783 C21.7866808,153.372723 22.7974087,157.277247 22.7775123,161.425553 C22.7615953,165.090289 21.941871,168.561199 20.4974057,171.68242 C23.9852129,175.2992 26.4742301,179.835161 27.6421384,184.842702 C32.2481129,204.589119 40.1329848,219.40193 49.6473569,230.49805 C70.9641669,250.060631 99.3421452,262 130.495646,262 C165.544826,262 197.078345,246.891452 219,222.810895 C203.825153,224.079764 186.622882,224.105742 170.029435,221.040471 Z" id="Shape" fill="#95D6FC"></path>
            <path d="M0.907614581,157.716327 L15.8083233,152.720409 C17.4348579,152.17551 18.888105,151.232653 20.069607,150 C21.9541024,153.597959 23.0194232,157.72449 22.9997318,162.108164 C22.9820094,166.014286 22.1076979,169.708163 20.5618992,173 C18.5435002,170.75102 16.1686815,168.828571 13.5004562,167.342857 L0.691006144,160.208163 C-0.32705507,159.640816 -0.191181969,158.085714 0.907614581,157.716327 Z" id="Shape" fill="#FFCB37"></path>
            <path d="M16.1624415,162.944272 C15.8649962,162.883901 15.5675514,162.827554 15.2701061,162.775232 L3,160.660217 L13.497254,166.421672 C16.1683511,167.886687 18.5420029,169.782353 20.5610843,172 C22.1074057,168.754024 22.9839824,165.11161 22.9997411,161.259907 C23.0036805,160.497214 22.9623141,159.744582 22.8992794,159 C22.0463407,161.696594 19.2275057,163.582198 16.1624415,162.944272 Z" id="Shape" fill="#FF941F"></path>
            <path d="M42.499044,157 C39.459746,157 37,154.528062 37,151.499365 C37,147.952173 40.2630845,145.440057 43.5720746,146.107786 C46.1542341,146.635847 48,148.860973 48,151.499365 C48,154.49745 45.5651192,157 42.499044,157 Z" id="Shape" fill="#603256"></path>
            <path d="M132.385091,205 C142.780391,230.863933 122.134888,258.810123 94,256.318144 C137.310436,270.141799 186.466489,258.608232 219,223.172249 C190.403981,225.545468 154.042297,223.589887 132.385091,205 Z" id="Shape" fill="#73CCF9"></path>
        </g>
        <text id="Life-on-Earth" font-family="Avenir-Heavy, Avenir" font-size="80" font-weight="600" letter-spacing="-0.0182400011" fill="#548687">
            <tspan x="362" y="177">Life on Earth</tspan>
        </text>
    </g>
</svg>